<!-- Generator: Adobe Illustrator 20.1.0, SVG Export Plug-In  -->
<svg version="1.1"
	 xmlns="http://www.w3.org/2000/svg" xmlns:xlink="http://www.w3.org/1999/xlink" xmlns:a="http://ns.adobe.com/AdobeSVGViewerExtensions/3.0/"
	 x="0px" y="0px" width="822.082px" height="250.381px" viewBox="0 0 822.082 250.381"
	 style="overflow:scroll;enable-background:new 0 0 822.082 250.381;" xml:space="preserve">
<style type="text/css">
	.st0{fill:#58595B;}
	.st1{fill:#FAD42B;}
	.st2{fill:#BE1E2D;}
</style>
<defs>
</defs>
<g>
	<path class="st0" d="M223.486,227.673c-6.618,6.491-16.482,7.659-25.957,7.659c-6.881,0-12.852-0.521-17.781-0.521
		c-5.971,0-13.63,0.521-13.63,0.521v-2.856c1.82-0.129,4.545-0.908,6.618-3.375c2.34-2.725,2.467-6.618,2.467-18.82v-42.312
		c0-10.772-0.389-13.239-2.725-15.575c-1.557-1.557-4.282-2.336-6.098-2.465v-2.856c0,0,7.008,0.518,13.236,0.518
		c6.229,0,10.905-0.389,17.781-0.389c8.696,0,28.555,0.779,28.555,19.988c0,18.431-18.691,21.156-20.507,21.287
		c1.426,0,24.789-0.131,24.789,22.193C230.236,217.29,228.031,223.13,223.486,227.673z M194.931,152.394
		c-4.672,0-7.008,0.518-7.008,0.518v32.838c0,0,2.725,0.26,7.008,0.26c3.114,0,6.233-0.26,8.307-1.168
		c3.898-1.557,8.696-6.36,8.696-15.835C211.934,153.562,201.681,152.394,194.931,152.394z M195.062,191.462
		c-4.151,0-5.45,0.129-7.139,0.258v32.059c0,3.893,0.91,5.582,4.282,6.1c1.689,0.26,4.414,0.26,5.971,0.26
		c10.516,0,18.044-5.192,18.044-19.339C216.221,197.173,208.693,191.462,195.062,191.462z"/>
	<path class="st0" d="M265.409,153.301c-2.336,2.727-2.467,6.62-2.467,18.82v42.312c0,10.774,0.521,13.239,2.856,15.577
		c1.557,1.557,4.414,2.336,6.229,2.465v2.856c0,0-7.786-0.521-15.441-0.521c-9.09,0-15.446,0.521-15.446,0.521v-2.856
		c1.815-0.129,4.282-0.908,6.356-3.375c2.34-2.725,2.467-6.618,2.467-18.82v-42.312c0-10.772-0.389-13.239-2.725-15.575
		c-1.557-1.557-4.282-2.336-6.098-2.465v-2.856c0,0,7.786,0.518,15.446,0.518c9.085,0,15.441-0.518,15.441-0.518v2.856
		C270.212,150.058,267.487,150.836,265.409,153.301z"/>
	<path class="st0" d="M336.277,232.604v2.467h-32.322c-17.261,0-21.674,0.26-21.674,0.26v-2.856c1.82-0.129,4.545-0.908,6.618-3.375
		c2.34-2.725,2.467-6.618,2.467-18.82v-42.312c0-10.772-0.389-13.239-2.725-15.575c-1.557-1.557-4.282-2.336-6.098-2.465v-2.856
		c0,0,8.434,0.518,16.613,0.518c10.253,0,16.351-0.518,16.351-0.518v2.985c-2.336,0.129-6.75,0.518-8.823,2.985
		c-2.078,2.596-2.34,5.582-2.34,17.392v51.787c0,5.971,1.299,6.879,8.18,6.879h6.229c5.45,0,8.827-0.129,11.29-2.725
		c2.988-3.114,3.377-8.956,3.377-9.214h3.372C336.793,217.161,336.277,222.872,336.277,232.604z"/>
	<path class="st0" d="M398.964,232.604v2.467h-32.322c-17.261,0-21.674,0.26-21.674,0.26v-2.856c1.82-0.129,4.545-0.908,6.618-3.375
		c2.34-2.725,2.467-6.618,2.467-18.82v-42.312c0-10.772-0.389-13.239-2.725-15.575c-1.557-1.557-4.282-2.336-6.098-2.465v-2.856
		c0,0,8.433,0.518,16.613,0.518c10.253,0,16.351-0.518,16.351-0.518v2.985c-2.336,0.129-6.749,0.518-8.823,2.985
		c-2.078,2.596-2.34,5.582-2.34,17.392v51.787c0,5.971,1.299,6.879,8.18,6.879h6.229c5.45,0,8.827-0.129,11.29-2.725
		c2.988-3.114,3.377-8.956,3.377-9.214h3.372C399.48,217.161,398.964,222.872,398.964,232.604z"/>
	<path class="st0" d="M542.768,154.211c-0.779,1.557-1.947,5.192-2.336,6.36l-23.752,74.5l-9.864,1.039l-17.523-63.079l-1.684-6.749
		c-0.131,0.779-0.91,4.282-1.947,7.786l-18.044,60.874l-10.122,1.297l-21.285-75.668c-0.91-3.117-1.557-5.063-2.467-6.881
		c-0.647-1.168-1.947-3.633-5.324-3.762v-2.985c2.078,0.258,7.917,0.647,12.589,0.647c4.287,0,11.036-0.258,14.54-0.518v2.856
		c-0.779,0-3.893,0.258-5.582,1.815c-0.779,0.779-1.168,1.947-1.168,3.375c0,1.557,0.647,4.674,1.557,7.917l12.978,49.191
		c0.779,2.727,1.426,5.582,1.815,7.399c0.131-1.297,0.783-4.543,1.82-7.528l19.081-64.636l8.565-0.779l18.302,65.544
		c0.389,1.559,1.295,5.713,1.557,7.528c0.258-1.426,1.037-4.801,1.947-7.657l14.278-48.93c1.168-4.024,1.557-6.231,1.557-7.788
		c0-1.947-0.521-2.856-1.299-3.635c-1.299-1.168-4.282-1.686-5.45-1.686v-2.985c2.467,0.26,8.565,0.518,12.331,0.518
		c5.061,0,8.696-0.258,11.421-0.518v2.856C545.235,149.929,543.157,153.691,542.768,154.211z"/>
	<path class="st0" d="M590.535,236.111c-25.309,0-39.718-18.042-39.718-43.74c0-25.959,15.056-45.947,40.886-45.947
		c25.309,0,39.714,18.042,39.714,43.74C631.417,216.122,616.36,236.111,590.535,236.111z M591.313,152.654
		c-21.937,0-26.477,24.531-26.477,38.677c0,18.171,6.36,38.548,26.088,38.548c21.932,0,26.346-24.531,26.346-38.677
		C617.27,173.031,611.041,152.654,591.313,152.654z"/>
	<path class="st0" d="M695.534,232.604v2.467h-32.322c-17.261,0-21.674,0.26-21.674,0.26v-2.856c1.82-0.129,4.545-0.908,6.618-3.375
		c2.34-2.725,2.467-6.618,2.467-18.82v-42.312c0-10.772-0.389-13.239-2.725-15.575c-1.557-1.557-4.282-2.336-6.098-2.465v-2.856
		c0,0,8.433,0.518,16.613,0.518c10.253,0,16.351-0.518,16.351-0.518v2.985c-2.336,0.129-6.75,0.518-8.823,2.985
		c-2.078,2.596-2.34,5.582-2.34,17.392v51.787c0,5.971,1.299,6.879,8.18,6.879h6.229c5.45,0,8.827-0.129,11.29-2.725
		c2.988-3.114,3.377-8.956,3.377-9.214h3.372C696.05,217.161,695.534,222.872,695.534,232.604z"/>
	<path class="st0" d="M755.623,164.075c0-0.26,0.389-4.932-3.246-8.178c-2.594-2.336-6.745-2.336-11.29-2.336H726.29v33.098h13.11
		c5.192,0,8.049-0.389,9.995-2.596c2.336-2.596,2.205-6.62,2.205-6.749h3.377c0,0-0.258,4.024-0.258,12.331
		s0.389,12.071,0.389,12.071h-3.508c0-0.131,0.131-4.153-2.205-6.749c-1.947-2.207-4.672-2.467-9.995-2.467h-13.11v23.103
		c0,8.438,0.263,11.163,1.557,13.11c2.209,3.504,8.959,3.635,9.217,3.635v2.985c0,0-12.069-0.521-16.872-0.521
		c-7.139,0-15.966,0.521-15.966,0.521v-2.856c1.82-0.129,4.545-0.908,6.618-3.375c2.34-2.725,2.467-6.618,2.467-18.82v-42.312
		c0-10.772-0.389-13.239-2.725-15.575c-1.557-1.557-4.282-2.336-6.098-2.465v-2.856c0,0,8.696,0.518,20.375,0.518h33.747v2.856
		c0,9.346,0.389,13.628,0.389,13.628H755.623z"/>
	<path class="st0" d="M821.557,232.346v2.725H787.94c-12.068,0-21.416,0.26-21.416,0.26v-2.856c1.82-0.129,4.545-0.908,6.618-3.375
		c2.34-2.725,2.467-6.618,2.467-18.82v-42.312c0-10.772-0.389-13.239-2.725-15.575c-1.557-1.557-4.282-2.336-6.098-2.465v-2.856
		c0,0,10.38,0.518,20.375,0.518h33.747v2.856c0,9.346,0.389,13.628,0.389,13.628h-3.246c0-0.26,0.258-4.932-3.377-8.178
		c-2.594-2.336-6.745-2.336-11.29-2.336h-14.798v33.098h13.241c5.192,0,8.049-0.389,9.995-2.596c2.336-2.596,2.205-6.62,2.205-6.749
		h3.246c0,0-0.258,4.024-0.258,12.331s0.389,12.071,0.389,12.071h-3.377c0-0.131,0-4.153-2.336-6.749
		c-1.947-2.207-4.672-2.467-9.995-2.467h-13.11v29.723c0,5.971,1.299,6.879,8.18,6.879h7.266c5.455,0,8.696-0.129,11.163-2.725
		c2.988-3.114,3.377-8.956,3.377-9.214h3.504C822.077,217.161,821.557,222.612,821.557,232.346z"/>
</g>
<g>
	<path class="st0" d="M264.944,115.401c0.082,1.5,0.415,2.822,0.998,3.967c0.584,1.146,1.343,2.123,2.28,2.936
		c0.937,0.812,2.031,1.426,3.28,1.842c1.249,0.417,2.601,0.625,4.058,0.625c1.042,0,2.157-0.093,3.342-0.28
		c1.188-0.188,2.291-0.531,3.312-1.032c1.019-0.499,1.862-1.196,2.528-2.092c0.666-0.895,1.001-2.03,1.001-3.405
		c0-1.79-0.543-3.144-1.625-4.06c-1.083-0.915-2.446-1.624-4.09-2.123c-1.646-0.499-3.415-0.906-5.309-1.218
		c-1.897-0.312-3.666-0.781-5.309-1.405c-1.646-0.625-3.009-1.508-4.092-2.653c-1.083-1.146-1.623-2.821-1.623-5.029
		c0-1.582,0.353-2.904,1.06-3.967c0.709-1.061,1.614-1.905,2.717-2.529s2.343-1.071,3.718-1.343c1.372-0.27,2.747-0.406,4.122-0.406
		c1.664,0,3.226,0.187,4.685,0.562c1.457,0.375,2.717,0.979,3.78,1.811c1.06,0.833,1.892,1.896,2.496,3.186
		c0.604,1.291,0.907,2.853,0.907,4.685h-2.373c0-1.458-0.242-2.707-0.718-3.748c-0.481-1.041-1.147-1.884-1.999-2.53
		c-0.855-0.645-1.865-1.124-3.03-1.436c-1.167-0.312-2.416-0.468-3.748-0.468c-1.083,0-2.177,0.105-3.28,0.312
		c-1.103,0.209-2.09,0.562-2.966,1.062c-0.875,0.499-1.593,1.146-2.154,1.935c-0.563,0.792-0.843,1.75-0.843,2.873
		c0,1.291,0.312,2.333,0.937,3.123c0.625,0.792,1.445,1.427,2.467,1.906c1.019,0.479,2.166,0.864,3.435,1.155
		c1.27,0.292,2.551,0.584,3.841,0.874c1.582,0.292,3.071,0.636,4.466,1.032c1.395,0.396,2.601,0.937,3.622,1.623
		c1.021,0.687,1.821,1.573,2.405,2.655c0.584,1.084,0.875,2.457,0.875,4.123c0,1.748-0.397,3.186-1.188,4.31
		c-0.791,1.125-1.789,2.03-2.998,2.717c-1.208,0.687-2.551,1.165-4.028,1.436c-1.479,0.271-2.927,0.407-4.343,0.407
		c-1.833,0-3.529-0.241-5.09-0.719c-1.562-0.478-2.925-1.207-4.09-2.186c-1.167-0.978-2.084-2.175-2.749-3.592
		c-0.666-1.415-1.021-3.06-1.062-4.934H264.944z"/>
	<path class="st0" d="M294.736,110.343v0.374c0,1.874,0.251,3.666,0.752,5.372c0.499,1.709,1.24,3.207,2.223,4.498
		c0.98,1.29,2.211,2.31,3.695,3.06c1.482,0.749,3.203,1.124,5.166,1.124c3.214,0,5.763-0.843,7.641-2.529
		c1.878-1.687,3.173-4.029,3.882-7.027h2.375c-0.709,3.748-2.241,6.621-4.591,8.619c-2.353,1.999-5.467,2.999-9.34,2.999
		c-2.373,0-4.445-0.427-6.214-1.281c-1.769-0.853-3.248-2.019-4.434-3.498c-1.188-1.477-2.072-3.226-2.656-5.247
		c-0.584-2.019-0.873-4.195-0.873-6.527c0-2.249,0.301-4.403,0.905-6.465c0.604-2.061,1.509-3.872,2.717-5.433
		c1.208-1.562,2.717-2.811,4.527-3.748c1.812-0.937,3.946-1.405,6.403-1.405c2.248,0,4.236,0.416,5.966,1.249
		c1.726,0.833,3.173,1.967,4.34,3.403c1.165,1.437,2.049,3.103,2.654,4.997c0.604,1.896,0.907,3.926,0.907,6.09
		c0,0.209-0.011,0.448-0.032,0.718c-0.023,0.271-0.032,0.49-0.032,0.657H294.736z M318.346,108.281
		c-0.084-1.748-0.376-3.403-0.875-4.965c-0.504-1.562-1.242-2.936-2.225-4.123c-0.98-1.187-2.17-2.134-3.57-2.842
		s-2.995-1.062-4.789-1.062c-1.922,0-3.613,0.365-5.074,1.093c-1.461,0.729-2.692,1.687-3.695,2.873
		c-1.001,1.187-1.774,2.571-2.316,4.153c-0.543,1.583-0.878,3.207-1.003,4.872H318.346z"/>
	<path class="st0" d="M326.277,93.977h2.375v6.871h0.123c0.417-1.207,1.01-2.28,1.78-3.217c0.771-0.937,1.666-1.738,2.685-2.405
		c1.021-0.666,2.134-1.165,3.342-1.499c1.208-0.333,2.437-0.499,3.686-0.499c1.874,0,3.467,0.229,4.778,0.686
		c1.311,0.459,2.382,1.062,3.217,1.812c0.832,0.749,1.489,1.592,1.967,2.529c0.479,0.937,0.823,1.884,1.03,2.842
		c0.207,0.959,0.333,1.885,0.376,2.78c0.041,0.896,0.062,1.677,0.062,2.342v19.862h-2.373v-20.3c0-0.79-0.064-1.79-0.187-2.998
		c-0.125-1.207-0.49-2.363-1.094-3.466c-0.604-1.103-1.521-2.051-2.747-2.843c-1.229-0.79-2.927-1.187-5.093-1.187
		c-1.833,0-3.456,0.334-4.872,1c-1.416,0.667-2.622,1.592-3.622,2.779c-0.998,1.188-1.76,2.603-2.28,4.248
		c-0.522,1.645-0.78,3.446-0.78,5.403v17.364h-2.375V93.977z"/>
	<path class="st0" d="M356.883,87.919v-6.434h2.373v6.434H356.883z M356.883,126.082V93.977h2.373v32.105H356.883z"/>
	<path class="st0" d="M366.062,110.031c0-2.29,0.321-4.445,0.967-6.465c0.645-2.02,1.593-3.799,2.843-5.34s2.79-2.758,4.623-3.654
		c1.831-0.895,3.935-1.343,6.308-1.343c2.373,0,4.475,0.448,6.308,1.343c1.833,0.896,3.374,2.113,4.623,3.654
		c1.249,1.541,2.195,3.32,2.843,5.34c0.645,2.02,0.967,4.175,0.967,6.465s-0.321,4.456-0.967,6.496
		c-0.647,2.04-1.593,3.821-2.843,5.34c-1.249,1.521-2.79,2.728-4.623,3.622c-1.833,0.896-3.935,1.344-6.308,1.344
		c-2.373,0-4.477-0.448-6.308-1.344c-1.833-0.895-3.374-2.102-4.623-3.622c-1.249-1.519-2.198-3.3-2.843-5.34
		C366.383,114.486,366.062,112.32,366.062,110.031z M368.435,110.031c0,1.915,0.271,3.758,0.812,5.527
		c0.54,1.771,1.334,3.342,2.373,4.717c1.042,1.373,2.332,2.467,3.873,3.279c1.541,0.812,3.31,1.217,5.309,1.217
		c1.999,0,3.768-0.406,5.309-1.217c1.541-0.813,2.831-1.906,3.873-3.279c1.039-1.375,1.831-2.945,2.373-4.717
		c0.54-1.769,0.812-3.612,0.812-5.527c0-1.915-0.271-3.758-0.812-5.528c-0.543-1.769-1.334-3.342-2.373-4.715
		c-1.042-1.375-2.332-2.468-3.873-3.279c-1.541-0.813-3.31-1.218-5.309-1.218c-1.999,0-3.768,0.406-5.309,1.218
		c-1.541,0.812-2.831,1.905-3.873,3.279c-1.04,1.373-1.833,2.946-2.373,4.715C368.706,106.273,368.435,108.116,368.435,110.031z"/>
	<path class="st0" d="M405.104,101.098h0.187c0.289-1.04,0.821-2.019,1.591-2.935c0.771-0.915,1.707-1.707,2.811-2.374
		c1.103-0.665,2.332-1.175,3.686-1.53c1.352-0.353,2.758-0.509,4.215-0.468v2.373c-1.249-0.165-2.674-0.041-4.277,0.375
		c-1.605,0.417-3.134,1.334-4.591,2.748c-0.584,0.625-1.094,1.229-1.532,1.811c-0.435,0.584-0.8,1.229-1.092,1.937
		c-0.292,0.709-0.522,1.499-0.686,2.374c-0.169,0.874-0.271,1.915-0.312,3.122v17.552h-2.375V93.977h2.375V101.098z"/>
	<path class="st0" d="M439.832,81.485v19.363h0.123c0.417-1.207,1.01-2.28,1.78-3.217c0.771-0.937,1.666-1.738,2.685-2.405
		c1.021-0.666,2.134-1.165,3.342-1.499c1.208-0.333,2.437-0.499,3.686-0.499c1.874,0,3.467,0.229,4.778,0.686
		c1.311,0.459,2.382,1.062,3.217,1.812c0.832,0.749,1.489,1.592,1.967,2.529c0.479,0.937,0.823,1.884,1.03,2.842
		c0.207,0.959,0.333,1.885,0.376,2.78c0.041,0.896,0.062,1.677,0.062,2.342v19.862h-2.373v-20.3c0-0.79-0.064-1.79-0.187-2.998
		c-0.125-1.207-0.49-2.363-1.094-3.466c-0.604-1.103-1.521-2.051-2.747-2.843c-1.229-0.79-2.927-1.187-5.093-1.187
		c-1.833,0-3.456,0.334-4.872,1c-1.416,0.667-2.622,1.592-3.622,2.779c-0.998,1.188-1.76,2.603-2.28,4.248
		c-0.522,1.645-0.78,3.446-0.78,5.403v17.364h-2.375V81.485H439.832z"/>
	<path class="st0" d="M470.748,110.343v0.374c0,1.874,0.251,3.666,0.752,5.372c0.499,1.709,1.24,3.207,2.223,4.498
		c0.98,1.29,2.211,2.31,3.695,3.06c1.482,0.749,3.203,1.124,5.166,1.124c3.214,0,5.763-0.843,7.641-2.529
		c1.878-1.687,3.173-4.029,3.882-7.027h2.375c-0.709,3.748-2.241,6.621-4.591,8.619c-2.353,1.999-5.467,2.999-9.34,2.999
		c-2.373,0-4.445-0.427-6.214-1.281c-1.769-0.853-3.248-2.019-4.434-3.498c-1.188-1.477-2.072-3.226-2.656-5.247
		c-0.584-2.019-0.873-4.195-0.873-6.527c0-2.249,0.301-4.403,0.905-6.465c0.604-2.061,1.509-3.872,2.717-5.433
		c1.208-1.562,2.717-2.811,4.527-3.748c1.812-0.937,3.946-1.405,6.403-1.405c2.248,0,4.236,0.416,5.966,1.249
		c1.726,0.833,3.173,1.967,4.34,3.403c1.165,1.437,2.049,3.103,2.653,4.997c0.604,1.896,0.907,3.926,0.907,6.09
		c0,0.209-0.011,0.448-0.032,0.718c-0.023,0.271-0.032,0.49-0.032,0.657H470.748z M494.358,108.281
		c-0.084-1.748-0.376-3.403-0.875-4.965c-0.504-1.562-1.242-2.936-2.225-4.123c-0.98-1.187-2.17-2.134-3.57-2.842
		s-2.995-1.062-4.789-1.062c-1.922,0-3.613,0.365-5.074,1.093c-1.461,0.729-2.692,1.687-3.695,2.873
		c-1.001,1.187-1.774,2.571-2.316,4.153c-0.543,1.583-0.878,3.207-1.003,4.872H494.358z"/>
	<path class="st0" d="M523.589,119.711h-0.125c-0.376,0.959-0.916,1.865-1.625,2.717c-0.707,0.854-1.571,1.614-2.592,2.28
		c-1.019,0.667-2.175,1.188-3.465,1.562c-1.293,0.375-2.708,0.563-4.247,0.563c-3.415,0-6.059-0.74-7.933-2.218
		c-1.874-1.477-2.811-3.757-2.811-6.839c0-1.874,0.374-3.405,1.124-4.591c0.75-1.187,1.696-2.123,2.843-2.811
		c1.144-0.687,2.414-1.176,3.809-1.468c1.395-0.291,2.738-0.499,4.028-0.625l3.686-0.312c1.707-0.124,3.05-0.321,4.028-0.593
		c0.978-0.27,1.719-0.645,2.218-1.125c0.499-0.478,0.812-1.093,0.937-1.842c0.125-0.75,0.187-1.687,0.187-2.811
		c0-0.874-0.166-1.687-0.499-2.436c-0.335-0.75-0.855-1.416-1.562-1.999c-0.709-0.582-1.625-1.041-2.749-1.375
		c-1.124-0.333-2.498-0.499-4.122-0.499c-2.875,0-5.195,0.709-6.964,2.123c-1.771,1.417-2.738,3.561-2.904,6.434h-2.373
		c0.164-3.539,1.299-6.194,3.403-7.964c2.102-1.77,5.09-2.655,8.963-2.655c3.871,0,6.693,0.76,8.462,2.28
		c1.769,1.521,2.656,3.508,2.656,5.965v18.676c0,0.459,0.009,0.916,0.03,1.375c0.021,0.458,0.096,0.874,0.219,1.249
		c0.125,0.374,0.333,0.677,0.625,0.905c0.292,0.229,0.709,0.344,1.249,0.344c0.417,0,1.001-0.063,1.751-0.188v1.999
		c-0.625,0.166-1.272,0.25-1.938,0.25c-0.957,0-1.717-0.125-2.28-0.375c-0.563-0.25-0.989-0.582-1.281-1
		c-0.292-0.415-0.49-0.905-0.593-1.467c-0.105-0.563-0.155-1.176-0.155-1.843V119.711z M523.589,107.844
		c-0.584,0.708-1.468,1.187-2.656,1.436c-1.185,0.25-2.51,0.438-3.967,0.562l-3.996,0.375c-1.167,0.125-2.334,0.302-3.499,0.531
		c-1.165,0.229-2.216,0.614-3.153,1.156c-0.937,0.541-1.698,1.28-2.28,2.217c-0.584,0.937-0.875,2.155-0.875,3.654
		c0,2.373,0.75,4.133,2.248,5.277c1.5,1.146,3.561,1.718,6.185,1.718c2.706,0,4.851-0.489,6.433-1.468
		c1.582-0.978,2.79-2.102,3.622-3.373c0.832-1.27,1.363-2.498,1.593-3.685c0.228-1.187,0.344-1.988,0.344-2.405V107.844z"/>
	<path class="st0" d="M536.456,81.485v44.597h-2.373V81.485H536.456z"/>
	<path class="st0" d="M555.819,96.039h-6.996v22.423c0,1.29,0.146,2.31,0.438,3.06c0.292,0.749,0.739,1.322,1.343,1.718
		c0.604,0.396,1.331,0.635,2.186,0.718c0.853,0.083,1.842,0.104,2.966,0.063v2.061c-1.208,0.083-2.382,0.072-3.529-0.031
		c-1.144-0.104-2.154-0.416-3.027-0.937c-0.875-0.521-1.573-1.302-2.093-2.342c-0.522-1.041-0.741-2.477-0.656-4.31V96.039h-5.934
		v-2.062h5.934v-9.994h2.373v9.994h6.996V96.039z"/>
	<path class="st0" d="M562.564,81.485v19.363h0.123c0.417-1.207,1.01-2.28,1.78-3.217c0.771-0.937,1.666-1.738,2.685-2.405
		c1.021-0.666,2.134-1.165,3.342-1.499c1.208-0.333,2.437-0.499,3.686-0.499c1.874,0,3.467,0.229,4.778,0.686
		c1.311,0.459,2.382,1.062,3.217,1.812c0.832,0.749,1.489,1.592,1.967,2.529c0.479,0.937,0.823,1.884,1.03,2.842
		c0.207,0.959,0.333,1.885,0.376,2.78c0.041,0.896,0.062,1.677,0.062,2.342v19.862h-2.373v-20.3c0-0.79-0.064-1.79-0.187-2.998
		c-0.125-1.207-0.49-2.363-1.094-3.466c-0.604-1.103-1.521-2.051-2.747-2.843c-1.229-0.79-2.927-1.187-5.093-1.187
		c-1.833,0-3.456,0.334-4.872,1c-1.416,0.667-2.622,1.592-3.622,2.779c-0.998,1.188-1.76,2.603-2.28,4.248
		c-0.522,1.645-0.78,3.446-0.78,5.403v17.364h-2.375V81.485H562.564z"/>
	<path class="st0" d="M611.097,115.401c0.082,1.5,0.415,2.822,0.998,3.967c0.584,1.146,1.343,2.123,2.28,2.936
		c0.937,0.812,2.031,1.426,3.28,1.842c1.249,0.417,2.601,0.625,4.058,0.625c1.042,0,2.156-0.093,3.342-0.28
		c1.188-0.188,2.291-0.531,3.312-1.032c1.019-0.499,1.862-1.196,2.528-2.092c0.666-0.895,1.001-2.03,1.001-3.405
		c0-1.79-0.543-3.144-1.625-4.06c-1.083-0.915-2.446-1.624-4.09-2.123c-1.646-0.499-3.415-0.906-5.309-1.218
		c-1.897-0.312-3.666-0.781-5.309-1.405c-1.646-0.625-3.009-1.508-4.092-2.653c-1.083-1.146-1.623-2.821-1.623-5.029
		c0-1.582,0.353-2.904,1.06-3.967c0.709-1.061,1.614-1.905,2.717-2.529c1.103-0.625,2.344-1.071,3.718-1.343
		c1.372-0.27,2.747-0.406,4.122-0.406c1.664,0,3.226,0.187,4.685,0.562c1.457,0.375,2.717,0.979,3.78,1.811
		c1.06,0.833,1.892,1.896,2.496,3.186c0.604,1.291,0.907,2.853,0.907,4.685h-2.373c0-1.458-0.242-2.707-0.718-3.748
		c-0.481-1.041-1.147-1.884-1.999-2.53c-0.855-0.645-1.865-1.124-3.03-1.436c-1.167-0.312-2.416-0.468-3.748-0.468
		c-1.083,0-2.177,0.105-3.28,0.312c-1.103,0.209-2.09,0.562-2.966,1.062c-0.875,0.499-1.594,1.146-2.154,1.935
		c-0.563,0.792-0.844,1.75-0.844,2.873c0,1.291,0.312,2.333,0.937,3.123c0.625,0.792,1.445,1.427,2.467,1.906
		c1.019,0.479,2.166,0.864,3.435,1.155c1.27,0.292,2.551,0.584,3.841,0.874c1.582,0.292,3.071,0.636,4.466,1.032
		s2.601,0.937,3.622,1.623c1.021,0.687,1.821,1.573,2.405,2.655c0.584,1.084,0.875,2.457,0.875,4.123
		c0,1.748-0.397,3.186-1.188,4.31c-0.791,1.125-1.789,2.03-2.998,2.717c-1.208,0.687-2.551,1.165-4.028,1.436
		c-1.479,0.271-2.927,0.407-4.343,0.407c-1.833,0-3.529-0.241-5.09-0.719c-1.562-0.478-2.925-1.207-4.09-2.186
		c-1.167-0.978-2.084-2.175-2.749-3.592c-0.666-1.415-1.021-3.06-1.062-4.934H611.097z"/>
	<path class="st0" d="M640.887,110.343v0.374c0,1.874,0.251,3.666,0.752,5.372c0.499,1.709,1.24,3.207,2.223,4.498
		c0.98,1.29,2.211,2.31,3.695,3.06c1.482,0.749,3.203,1.124,5.166,1.124c3.214,0,5.763-0.843,7.641-2.529
		c1.878-1.687,3.173-4.029,3.882-7.027h2.375c-0.709,3.748-2.241,6.621-4.591,8.619c-2.353,1.999-5.467,2.999-9.34,2.999
		c-2.373,0-4.445-0.427-6.214-1.281c-1.769-0.853-3.248-2.019-4.434-3.498c-1.188-1.477-2.072-3.226-2.656-5.247
		c-0.584-2.019-0.873-4.195-0.873-6.527c0-2.249,0.301-4.403,0.905-6.465c0.604-2.061,1.509-3.872,2.717-5.433
		c1.208-1.562,2.717-2.811,4.527-3.748c1.812-0.937,3.946-1.405,6.403-1.405c2.248,0,4.236,0.416,5.966,1.249
		c1.726,0.833,3.173,1.967,4.34,3.403c1.165,1.437,2.049,3.103,2.653,4.997c0.604,1.896,0.907,3.926,0.907,6.09
		c0,0.209-0.011,0.448-0.032,0.718c-0.023,0.271-0.032,0.49-0.032,0.657H640.887z M664.497,108.281
		c-0.084-1.748-0.376-3.403-0.875-4.965c-0.504-1.562-1.242-2.936-2.225-4.123c-0.98-1.187-2.17-2.134-3.57-2.842
		c-1.4-0.708-2.995-1.062-4.789-1.062c-1.922,0-3.613,0.365-5.074,1.093c-1.461,0.729-2.692,1.687-3.695,2.873
		c-1.001,1.187-1.774,2.571-2.316,4.153c-0.543,1.583-0.878,3.207-1.003,4.872H664.497z"/>
	<path class="st0" d="M674.806,101.098h0.187c0.289-1.04,0.821-2.019,1.591-2.935c0.771-0.915,1.707-1.707,2.811-2.374
		c1.103-0.665,2.332-1.175,3.686-1.53c1.352-0.353,2.758-0.509,4.215-0.468v2.373c-1.249-0.165-2.674-0.041-4.277,0.375
		c-1.605,0.417-3.134,1.334-4.591,2.748c-0.584,0.625-1.094,1.229-1.532,1.811c-0.435,0.584-0.8,1.229-1.092,1.937
		c-0.292,0.709-0.522,1.499-0.686,2.374c-0.169,0.874-0.271,1.915-0.312,3.122v17.552h-2.375V93.977h2.375V101.098z"/>
	<path class="st0" d="M706.752,126.082h-2.936l-12.93-32.105h2.749l11.617,29.357h0.125l10.867-29.357h2.624L706.752,126.082z"/>
	<path class="st0" d="M722.803,87.919v-6.434h2.373v6.434H722.803z M722.803,126.082V93.977h2.373v32.105H722.803z"/>
	<path class="st0" d="M756.906,103.909c-0.125-1.415-0.49-2.664-1.094-3.748c-0.604-1.082-1.384-1.976-2.341-2.685
		c-0.957-0.708-2.072-1.249-3.342-1.624c-1.27-0.375-2.633-0.562-4.092-0.562c-1.997,0-3.768,0.406-5.307,1.218
		c-1.541,0.812-2.834,1.894-3.873,3.247c-1.042,1.354-1.833,2.895-2.373,4.622c-0.543,1.729-0.814,3.509-0.814,5.341
		c0,2.166,0.251,4.164,0.75,5.995c0.499,1.833,1.27,3.426,2.312,4.778c1.039,1.354,2.332,2.405,3.873,3.155
		c1.539,0.749,3.351,1.124,5.432,1.124c1.5,0,2.884-0.25,4.156-0.749c1.27-0.5,2.394-1.188,3.372-2.062
		c0.978-0.874,1.78-1.925,2.405-3.154c0.625-1.228,1.039-2.57,1.249-4.029h2.373c-0.248,1.916-0.771,3.623-1.562,5.122
		c-0.791,1.499-1.789,2.758-2.998,3.778c-1.208,1.021-2.583,1.802-4.122,2.342c-1.541,0.541-3.166,0.813-4.874,0.813
		c-2.622,0-4.86-0.468-6.714-1.405c-1.853-0.937-3.374-2.196-4.559-3.78c-1.188-1.582-2.061-3.403-2.624-5.465
		c-0.563-2.061-0.843-4.216-0.843-6.464c0-2.249,0.321-4.372,0.969-6.372c0.645-1.998,1.594-3.748,2.843-5.247
		c1.249-1.499,2.788-2.685,4.621-3.561c1.833-0.874,3.935-1.311,6.308-1.311c1.751,0,3.383,0.219,4.903,0.655
		c1.521,0.438,2.875,1.093,4.06,1.967c1.188,0.874,2.157,1.989,2.904,3.342c0.75,1.354,1.208,2.926,1.375,4.715H756.906z"/>
	<path class="st0" d="M766.025,110.343v0.374c0,1.874,0.251,3.666,0.752,5.372c0.499,1.709,1.24,3.207,2.223,4.498
		c0.98,1.29,2.211,2.31,3.695,3.06c1.482,0.749,3.203,1.124,5.166,1.124c3.214,0,5.763-0.843,7.641-2.529
		c1.878-1.687,3.173-4.029,3.882-7.027h2.375c-0.709,3.748-2.241,6.621-4.591,8.619c-2.353,1.999-5.466,2.999-9.34,2.999
		c-2.373,0-4.445-0.427-6.214-1.281c-1.769-0.853-3.248-2.019-4.434-3.498c-1.188-1.477-2.072-3.226-2.656-5.247
		c-0.584-2.019-0.873-4.195-0.873-6.527c0-2.249,0.301-4.403,0.905-6.465c0.604-2.061,1.509-3.872,2.717-5.433
		c1.208-1.562,2.717-2.811,4.527-3.748c1.812-0.937,3.946-1.405,6.403-1.405c2.248,0,4.236,0.416,5.966,1.249
		c1.726,0.833,3.173,1.967,4.34,3.403c1.165,1.437,2.049,3.103,2.654,4.997c0.604,1.896,0.907,3.926,0.907,6.09
		c0,0.209-0.011,0.448-0.032,0.718c-0.023,0.271-0.032,0.49-0.032,0.657H766.025z M789.635,108.281
		c-0.084-1.748-0.376-3.403-0.875-4.965c-0.504-1.562-1.242-2.936-2.225-4.123c-0.98-1.187-2.17-2.134-3.57-2.842
		c-1.4-0.708-2.995-1.062-4.789-1.062c-1.922,0-3.613,0.365-5.074,1.093c-1.461,0.729-2.692,1.687-3.695,2.873
		c-1.001,1.187-1.773,2.571-2.316,4.153c-0.543,1.583-0.878,3.207-1.003,4.872H789.635z"/>
	<path class="st0" d="M798.694,115.401c0.082,1.5,0.415,2.822,0.998,3.967c0.584,1.146,1.343,2.123,2.28,2.936
		c0.937,0.812,2.031,1.426,3.28,1.842c1.249,0.417,2.601,0.625,4.058,0.625c1.042,0,2.157-0.093,3.342-0.28
		c1.188-0.188,2.291-0.531,3.312-1.032c1.019-0.499,1.862-1.196,2.528-2.092c0.666-0.895,1.001-2.03,1.001-3.405
		c0-1.79-0.543-3.144-1.625-4.06c-1.083-0.915-2.446-1.624-4.09-2.123c-1.646-0.499-3.415-0.906-5.309-1.218
		c-1.897-0.312-3.666-0.781-5.309-1.405c-1.646-0.625-3.009-1.508-4.092-2.653c-1.083-1.146-1.623-2.821-1.623-5.029
		c0-1.582,0.353-2.904,1.06-3.967c0.709-1.061,1.614-1.905,2.717-2.529s2.343-1.071,3.718-1.343c1.372-0.27,2.747-0.406,4.122-0.406
		c1.664,0,3.226,0.187,4.685,0.562c1.457,0.375,2.717,0.979,3.78,1.811c1.06,0.833,1.892,1.896,2.496,3.186
		c0.604,1.291,0.907,2.853,0.907,4.685h-2.373c0-1.458-0.242-2.707-0.718-3.748c-0.481-1.041-1.147-1.884-1.999-2.53
		c-0.855-0.645-1.865-1.124-3.03-1.436c-1.167-0.312-2.416-0.468-3.748-0.468c-1.083,0-2.177,0.105-3.28,0.312
		c-1.103,0.209-2.09,0.562-2.966,1.062c-0.875,0.499-1.593,1.146-2.154,1.935c-0.563,0.792-0.843,1.75-0.843,2.873
		c0,1.291,0.312,2.333,0.937,3.123c0.625,0.792,1.445,1.427,2.467,1.906c1.019,0.479,2.166,0.864,3.435,1.155
		c1.27,0.292,2.551,0.584,3.841,0.874c1.582,0.292,3.071,0.636,4.466,1.032c1.395,0.396,2.601,0.937,3.622,1.623
		c1.021,0.687,1.821,1.573,2.405,2.655c0.584,1.084,0.875,2.457,0.875,4.123c0,1.748-0.397,3.186-1.188,4.31
		c-0.791,1.125-1.789,2.03-2.998,2.717c-1.208,0.687-2.551,1.165-4.028,1.436c-1.479,0.271-2.927,0.407-4.343,0.407
		c-1.833,0-3.529-0.241-5.09-0.719c-1.562-0.478-2.925-1.207-4.09-2.186c-1.167-0.978-2.084-2.175-2.749-3.592
		c-0.666-1.415-1.021-3.06-1.062-4.934H798.694z"/>
</g>
<rect x="166.118" y="242.788" class="st1" width="655.959" height="4.817"/>
<path class="st2" d="M151.247,104.577c0,0-0.823-1.661-2.394-4.832c-1.615-3.142-3.943-7.79-7.293-13.552
	c-3.328-5.763-7.599-12.695-13.204-20.171c-5.57-7.474-12.595-15.49-21.528-22.538c-4.524-3.475-9.496-6.484-15.062-8.998
	c-5.634-2.483-11.763-4.445-18.114-5.418c-6.326-0.905-12.942-0.862-18.911,1.256c-2.993,1.019-5.797,2.578-8.351,4.526
	c-2.55,1.973-4.713,4.535-6.58,7.416c-1.879,2.882-3.326,6.206-4.337,9.768c-1.017,3.555-1.717,7.338-1.91,11.247
	c-0.194,3.905-0.009,7.913,0.594,11.93c0.564,4.017,1.75,7.989,3.209,12.047c5.806,16.229,17.375,31.405,27.543,47.549
	c0,0-1.512-1.647-4.323-4.709c-2.808-3.076-6.995-7.5-12.101-13.401c-5.063-5.914-11.166-13.321-16.505-23.124
	c-2.617-4.884-5.088-10.421-6.626-16.711c-1.534-6.232-2.117-13.022-1.497-20.088c0.586-7.052,2.668-14.446,6.743-21.302
	c4.135-6.781,10.732-12.783,18.695-15.906c7.954-3.159,16.73-3.727,24.944-2.482c8.253,1.238,16.174,3.957,23.553,7.756
	c7.538,3.856,14.342,9.12,20.162,15.113c5.845,6,10.82,12.709,15.101,19.741C141.59,73.796,147.489,89.147,151.247,104.577z"/>
<path class="st2" d="M38.766,111.28c0,0,0.822,1.023,2.386,2.967c0.757,0.977,1.693,2.186,2.799,3.614
	c1.082,1.434,2.301,3.095,3.861,4.845c5.814,7.271,14.772,17.143,26.429,28.74c5.796,5.835,12.423,12.015,19.473,18.796
	c7.164,6.707,14.77,13.989,22.753,21.923c7.926,7.972,16.189,16.585,24.117,26.256c7.92,9.649,15.578,20.281,22.011,31.96
	c0,0-1.086-1.106-3.104-3.161c-2.02-2.05-4.856-5.129-8.726-8.771c-7.543-7.457-18.695-17.507-32.133-29.233
	c-13.345-11.815-29.073-25.315-43.888-41.536c-7.48-8.003-14.441-16.96-20.745-26.34C47.743,131.895,42.68,121.631,38.766,111.28z"
	/>
<path class="st2" d="M158.131,128.712c0,0-0.533-1.646-1.549-4.787c-0.835-3.193-2.113-7.98-2.842-14.362
	c-0.742-6.368-1.156-14.331-0.224-23.602c0.907-9.255,3.011-19.887,7.857-31.033c2.475-5.578,5.432-11.189,9.974-16.702
	c2.295-2.724,5.064-5.402,8.553-7.521c3.466-2.152,7.663-3.541,11.735-4.01c4.104-0.505,8.153-0.242,12.05,0.41
	c3.874,0.697,7.715,1.682,11.466,3.143c7.499,2.865,14.688,7.199,20.865,12.967c6.178,5.743,11.445,12.835,14.909,20.996
	c3.451,8.088,5.202,17.551,3.147,26.766c-1.078,4.557-3.003,8.868-5.623,12.635c-2.605,3.781-5.806,7.041-9.281,9.897
	c-6.987,5.713-14.986,9.887-23.242,13.831c0,0,1.715-1.27,4.902-3.631c3.141-2.384,7.757-5.871,12.821-10.82
	c4.929-4.947,10.521-11.639,12.347-20.341c2.006-8.533-0.51-19.057-6.615-28.445c-6.039-9.394-15.634-17.669-27.34-22.23
	c-5.791-2.196-12.36-3.776-18.155-3.397c-2.919,0.2-5.501,0.871-7.891,2.211c-2.418,1.336-4.717,3.353-6.843,5.798
	c-2.109,2.437-4.142,5.311-5.919,8.321c-1.854,2.963-3.457,6.137-4.976,9.373c-2.999,6.502-5.298,13.46-7.036,20.59
	C157.789,99.044,156.531,114.08,158.131,128.712z"/>
<polygon class="st1" points="151.606,202.431 141.889,133.648 134.292,194.317 118.626,119.666 108.124,151.657 101.891,79.977 
	84.688,145.926 69.147,119.707 56.385,136.371 0,136.371 0,131.554 54.007,131.554 69.657,111.12 82.942,133.534 104.274,51.765 
	110.886,127.803 119.652,101.097 133.091,165.14 141.602,97.18 152.613,175.117 169.665,96.646 179.781,135.011 822.082,136.117 
	822.073,140.934 176.067,139.821 170.116,117.252 "/>
<g>
</g>
</svg>